<?xml version="1.0" encoding="UTF-8" standalone="no"?>
<!DOCTYPE svg PUBLIC "-//W3C//DTD SVG 1.1//EN" "http://www.w3.org/Graphics/SVG/1.1/DTD/svg11.dtd">
<svg width="100%" height="100%" viewBox="0 0 2006 800" version="1.1" xmlns="http://www.w3.org/2000/svg" xmlns:xlink="http://www.w3.org/1999/xlink" xml:space="preserve" xmlns:serif="http://www.serif.com/" style="fill-rule:evenodd;clip-rule:evenodd;stroke-linejoin:round;stroke-miterlimit:2;">
    <g transform="matrix(1,0,0,1,-295.276,-609.096)">
        <g transform="matrix(5.51125,0,0,5.51125,-5333.38,-4105.44)">
            <path d="M1159.8,931.708L1136.39,931.708L1136.54,922.221C1136.54,885.338 1166.43,855.439 1203.32,855.439C1240.2,855.439 1270.1,885.338 1270.1,922.221L1269.96,931.708L1246.69,931.708L1246.69,924.066C1246.69,900.07 1227.24,880.618 1203.25,880.618C1179.25,880.618 1159.8,900.07 1159.8,924.066L1159.8,931.708ZM1189.54,931.708L1172.89,931.708L1172.89,923.686C1172.89,906.923 1186.48,893.333 1203.25,893.333C1220.01,893.333 1233.6,906.923 1233.6,923.686L1233.6,931.708L1216.95,931.708L1216.95,922.867C1216.95,915.299 1210.81,909.164 1203.25,909.164C1195.68,909.164 1189.54,915.299 1189.54,922.867L1189.54,931.708ZM1036.89,946.088L1021.3,946.088L1021.3,938.525L1385.19,938.525L1385.19,946.088L1362.58,946.088L1362.58,981.423L1385.19,981.423L1385.19,992.966L1348.1,992.966L1348.1,946.088L1337.7,946.088L1337.7,992.966L1323.18,992.966L1323.18,946.088L1300.35,946.088L1317.97,992.966L1302.82,992.966L1300.51,985.228L1284.01,985.228L1281.74,992.966L1250.66,992.966L1242.92,978.641C1241.94,976.786 1241.07,975.581 1240.3,975.027C1239.26,974.302 1238.07,973.94 1236.75,973.94L1235.47,973.94L1235.47,992.966L1220.92,992.966L1220.92,946.088L1210.34,946.088L1210.34,992.966L1195.82,992.966L1195.82,946.088L1186,946.088L1186,992.966L1174.17,992.966L1174.17,957.216L1164.99,992.966L1154.28,992.966L1145.14,957.216L1145.14,992.966L1133.27,992.966L1133.27,946.088L1123.84,946.088L1123.84,974.036C1123.84,976.807 1123.41,979.424 1122.54,981.886C1121.68,984.349 1120.33,986.502 1118.48,988.346C1116.64,990.19 1114.7,991.485 1112.68,992.231C1111.91,992.517 1111.1,992.764 1110.24,992.971L1385.19,992.971L1385.19,1000.53L1021.3,1000.53L1021.3,992.971L1092.89,992.971C1091.14,992.615 1089.61,992.096 1088.31,991.416C1086.5,990.467 1084.84,989.118 1083.34,987.37C1081.84,985.622 1080.81,983.821 1080.25,981.966C1079.36,978.982 1078.91,976.338 1078.91,974.036L1078.91,946.088L1051.38,946.088L1051.38,981.423L1073.99,981.423L1073.99,992.966L1036.89,992.966L1036.89,946.088ZM1109.38,946.088L1093.36,946.088L1093.36,974.707C1093.36,977.266 1094.07,979.264 1095.49,980.703C1096.91,982.142 1098.88,982.862 1101.39,982.862C1103.88,982.862 1105.84,982.153 1107.26,980.735C1108.68,979.317 1109.38,977.308 1109.38,974.707L1109.38,946.088ZM1167.01,946.088L1152.33,946.088L1159.68,974.611L1167.01,946.088ZM1284.56,946.088L1245.07,946.088C1249.54,946.088 1252.96,946.471 1255.33,947.239C1257.7,948.006 1259.6,949.429 1261.05,951.508C1262.5,953.586 1263.23,956.118 1263.23,959.102C1263.23,961.703 1262.67,963.947 1261.57,965.834C1260.46,967.72 1258.93,969.25 1256.99,970.422C1255.76,971.169 1254.06,971.787 1251.91,972.277C1253.63,972.853 1254.89,973.428 1255.68,974.004C1256.21,974.388 1256.99,975.208 1258,976.466C1259.01,977.724 1259.69,978.694 1260.03,979.376L1266.98,992.859L1284.56,946.088ZM1297.48,975.091L1292.3,958.239L1287.15,975.091L1297.48,975.091ZM1235.47,965.082L1241.58,965.082C1242.24,965.082 1243.52,964.869 1245.42,964.443C1246.38,964.251 1247.16,963.76 1247.77,962.972C1248.37,962.183 1248.68,961.277 1248.68,960.254C1248.68,958.74 1248.2,957.578 1247.24,956.768C1246.28,955.958 1244.48,955.553 1241.84,955.553L1235.47,955.553L1235.47,965.082Z" style="fill:white;"/>
        </g>
    </g>
</svg>
